<svg viewBox="0 0 64 64" xmlns="http://www.w3.org/2000/svg">
  <!-- Brood-Mother: swollen belly, a pup peeking out (births pups on death) -->
  <path d="M18 52 Q4 51 6 38 Q6 32 12 31" fill="none" stroke="#5e3120" stroke-width="2.6" stroke-linecap="round"/>
  <path d="M17 52 C11 43 14 28 30 26 C40 25 48 30 51 37 L58 43 C59.3 44 58.4 45.5 57 45.5 L50 45.5 C46 51 38 55 28 55 C21 55 18 55 17 52 Z" fill="#8a4b2f" stroke="#201209" stroke-width="1.5" stroke-linejoin="round"/>
  <!-- swollen belly bulge -->
  <path d="M22 52 C20 44 26 40 32 42 C37 44 36 52 33 54 C28 56 24 56 22 52 Z" fill="#7a4128"/>
  <!-- pup peeking out of the belly -->
  <circle cx="29" cy="48" r="4.6" fill="#b4715a" stroke="#201209" stroke-width="1.3"/>
  <circle cx="27" cy="45" r="1.6" fill="#8a4b2f"/>
  <circle cx="30.5" cy="48" r="1.3" fill="#201209"/>
  <!-- mother head -->
  <circle cx="45" cy="26" r="4.6" fill="#8a4b2f" stroke="#201209" stroke-width="1.5"/>
  <circle cx="45" cy="26" r="2" fill="#b4715a"/>
  <circle cx="52" cy="35" r="1.8" fill="#201209"/>
  <circle cx="57" cy="44" r="1.3" fill="#b4715a"/>
  <rect x="24" y="53" width="4.5" height="7" rx="1.8" fill="#5e3120"/>
  <rect x="42" y="51" width="4.5" height="8" rx="1.8" fill="#5e3120"/>
</svg>
