<svg viewBox="0 0 64 64" xmlns="http://www.w3.org/2000/svg">
  <!-- Dusk-Runt: crouches as the drains go dark, facing away from its dawn twin (battle after noon: +2 health to the horde) -->
  <circle cx="16" cy="13" r="5" fill="#c7d0e0" stroke="#8f9fc7" stroke-width="1"/>
  <circle cx="18.5" cy="12" r="4.3" fill="#22222e"/>
  <path d="M49 47 Q61 46 59 33 Q59 27 54 26" fill="none" stroke="#22222e" stroke-width="2" stroke-linecap="round"/>
  <path d="M49 47 C52 38 46 28 35 27 C28 26.5 22 30 18 35 L8 41 C6.6 41.9 7.5 43.3 8.8 43.3 L18 44 C21 49 28 51.5 35 51.5 C43 51.5 47.5 51 49 47 Z" fill="#4a4a5e" stroke="#1c1c28" stroke-width="1.5" stroke-linejoin="round"/>
  <path d="M42 33 Q43 39 41 45 M36 32 Q37 38 35 44 M30 32 Q31 38 29 43" fill="none" stroke="#22222e" stroke-width="1.3"/>
  <circle cx="26" cy="28" r="4.4" fill="#4a4a5e" stroke="#1c1c28" stroke-width="1.5"/>
  <circle cx="26" cy="28" r="2" fill="#8f9fc7"/>
  <circle cx="19" cy="36" r="1.7" fill="#1c1c28"/>
  <circle cx="8.6" cy="41.8" r="1.2" fill="#8f9fc7"/>
  <rect x="40" y="50" width="4" height="7" rx="1.6" fill="#22222e"/>
  <rect x="22" y="48" width="4" height="8" rx="1.6" fill="#22222e"/>
</svg>
