<svg viewBox="0 0 64 64" xmlns="http://www.w3.org/2000/svg">
  <!-- Plague-Bearer: sickly, boils, swings a smoking censer (poisons front foe) -->
  <path d="M15 49 Q3 48 5 35 Q5 29 10 28" fill="none" stroke="#3f4a2c" stroke-width="2.4" stroke-linecap="round"/>
  <path d="M15 49 C11 40 15 30 27 28 C35 27 41 31 44 37 L54 43 C55.3 44 54.4 45.4 53 45.4 L45 45.5 C42 50 34 53 26 53 C19 53 16.5 52.5 15 49 Z" fill="#7c7a4e" stroke="#201209" stroke-width="1.5" stroke-linejoin="round"/>
  <!-- sickly green boils -->
  <circle cx="24" cy="38" r="2.4" fill="#6fae3a"/>
  <circle cx="31" cy="43" r="2" fill="#6fae3a"/>
  <circle cx="20" cy="45" r="1.7" fill="#6fae3a"/>
  <circle cx="38" cy="40" r="4.6" fill="#7c7a4e" stroke="#201209" stroke-width="1.5"/>
  <circle cx="38" cy="40" r="2" fill="#8f9a5a"/>
  <circle cx="45" cy="43.5" r="1.7" fill="#201209"/>
  <!-- censer on a chain, dripping smoke -->
  <path d="M50 20 L52 33" stroke="#4a4433" stroke-width="1.4" fill="none"/>
  <circle cx="52" cy="37" r="4.2" fill="#6a6350" stroke="#201209" stroke-width="1.3"/>
  <circle cx="52" cy="37" r="1.7" fill="#6fae3a"/>
  <path d="M49 18 Q46 14 49 11 Q52 9 50 5" fill="none" stroke="#6fae3a" stroke-width="1.8" stroke-linecap="round"/>
  <rect x="19" y="51" width="4.5" height="7" rx="1.8" fill="#3f4a2c"/>
  <rect x="35" y="49" width="4.5" height="8" rx="1.8" fill="#3f4a2c"/>
</svg>
