<svg viewBox="0 0 64 64" xmlns="http://www.w3.org/2000/svg">
  <!-- Pup: tiny round baby rat -->
  <path d="M23 50 Q13 49 15 41 Q15 37 19 36" fill="none" stroke="#5e3120" stroke-width="2.4" stroke-linecap="round"/>
  <path d="M22 50 C19 43 23 35 32 34 C38 33.5 43 37 46 41 L52 45 C53.2 45.8 52.4 47 51.2 47 L45 47.5 C42 52 36 54 30 54 C25 54 23 53 22 50 Z" fill="#8a4b2f" stroke="#201209" stroke-width="1.5" stroke-linejoin="round"/>
  <circle cx="36" cy="33" r="4.2" fill="#8a4b2f" stroke="#201209" stroke-width="1.5"/>
  <circle cx="36" cy="33" r="1.9" fill="#b4715a"/>
  <circle cx="43" cy="41" r="1.8" fill="#201209"/>
  <circle cx="51.4" cy="45.6" r="1.3" fill="#b4715a"/>
  <rect x="26" y="52" width="4" height="5" rx="1.6" fill="#5e3120"/>
  <rect x="37" y="51" width="4" height="6" rx="1.6" fill="#5e3120"/>
</svg>
