<svg viewBox="0 0 64 64" xmlns="http://www.w3.org/2000/svg">
  <!-- Watch-Whelp: young nervous recruit, oversized helmet, small dagger -->
  <!-- legs -->
  <rect x="24" y="46" width="5" height="12" rx="1.5" fill="#33414f"/>
  <rect x="33" y="46" width="5" height="12" rx="1.5" fill="#2a3540"/>
  <!-- small body / tunic -->
  <path d="M22 30 C22 26 40 26 40 30 L42 48 C42 50 20 50 20 48 Z" fill="#46586e" stroke="#1a222b" stroke-width="1.5" stroke-linejoin="round"/>
  <!-- little arm holding a short dagger, forward -->
  <rect x="38" y="33" width="10" height="4" rx="2" fill="#b9a78f" stroke="#1a222b" stroke-width="1"/>
  <path d="M47 33 L57 34 L47 37 Z" fill="#8a97a6" stroke="#1a222b" stroke-width="1"/>
  <!-- oversized helmet + timid face -->
  <path d="M25 14 C25 8 41 8 41 15 L41 20 L25 20 Z" fill="#5f7288" stroke="#1a222b" stroke-width="1.5" stroke-linejoin="round"/>
  <rect x="25" y="19" width="16" height="6" fill="#b9a78f" stroke="#1a222b" stroke-width="1.2"/>
  <rect x="24" y="12" width="18" height="3" rx="1.5" fill="#33414f"/>
  <circle cx="37" cy="22" r="1.3" fill="#1a222b"/>
</svg>
